<?xml version="1.0" standalone="no"?>
<!DOCTYPE svg PUBLIC "-//W3C//DTD SVG 20010904//EN"
 "http://www.w3.org/TR/2001/REC-SVG-20010904/DTD/svg10.dtd">
<svg version="1.0" xmlns="http://www.w3.org/2000/svg"
 width="188.000000pt" height="52.000000pt" viewBox="0 0 188.000000 52.000000"
 preserveAspectRatio="xMidYMid meet">

<g transform="translate(0.000000,52.000000) scale(0.100000,-0.100000)"
fill="#000000" stroke="none">
<path d="M640 275 l0 -95 55 0 c42 0 55 3 55 15 0 11 -11 15 -40 15 -36 0 -40
3 -40 25 0 21 5 25 30 25 20 0 30 5 30 15 0 10 -10 15 -30 15 -25 0 -30 4 -30
25 0 23 4 25 40 25 29 0 40 4 40 15 0 12 -13 15 -55 15 l-55 0 0 -95z"/>
<path d="M780 295 c0 -86 18 -115 70 -115 52 0 70 29 70 115 0 59 -3 75 -15
75 -11 0 -15 -17 -17 -71 -2 -55 -7 -74 -20 -83 -13 -8 -23 -8 -35 0 -14 9
-19 28 -21 83 -2 54 -6 71 -17 71 -12 0 -15 -16 -15 -75z"/>
</g>
</svg>
